<svg version="1" xmlns="http://www.w3.org/2000/svg" width="1365.333" height="1365.333" viewBox="0 0 1024.000000 1024.000000"><path d="M28 93.4c0 .2 3.1 14.5 6.9 31.8 9 40.2 63.7 286.9 110.5 497.8 20.1 90.5 42.7 192.5 50.3 226.8l13.8 62.2h169.4l1-3.4c.5-1.9 4.4-17.8 8.6-35.3 4.2-17.5 8.8-35.9 10.1-40.8 2.9-10.7 9.9-38.7 18.2-73 3.4-13.8 9.5-39 13.7-56 4.1-17.1 10.2-42 13.5-55.5 3.3-13.5 9.3-38.5 13.5-55.5 4.1-17.1 9.6-39.8 12.1-50.5 9.1-39 12.5-53.4 23.8-99.5 6.3-25.9 13.1-54 15.2-62.5 2.7-11.2 3.9-14.9 4.5-13.5.5 1.1 3.1 11.4 5.8 23 2.8 11.5 8.4 34.9 12.6 52 7.3 29.8 15.1 62.6 21.5 90 1.6 7.1 5.9 24.9 9.4 39.5 7.1 29.2 20.5 84.2 29.6 121.5 3.2 13.2 10 41.1 15 62 5.1 20.9 11 44.7 13.1 53 2.2 8.2 8.6 34.3 14.4 58 5.8 23.6 10.8 43.8 11.1 44.7.5 1.7 5.4 1.8 85.3 1.8h84.7l16.2-72.8c41-184.8 92.2-415.9 125.6-566.7 20.1-90.8 37.3-167.8 38.1-171.2.8-3.4 1.5-6.7 1.5-7.3 0-.7-25.9-.9-84.2-.8l-84.2.3-4.2 23c-2.3 12.6-5.6 30.9-7.3 40.5-1.7 9.6-6.5 35.3-10.6 57-4.1 21.7-8.8 46.5-10.4 55-1.6 8.5-5.2 27.6-8.1 42.5-2.8 14.8-10.4 55.3-17 90-6.6 34.6-14.2 75.1-17 90-2.9 14.8-6.2 32.6-7.5 39.5-2.5 13.6-12.6 66.9-20.6 109-2.8 14.6-5.3 28.2-5.6 30.2-.3 2.1-.9 3.8-1.2 3.8-.6 0-9.3-37.5-30.7-132.5-3.6-16-8.2-35.8-10-44-1.9-8.3-4.6-19.7-5.9-25.5-3.5-15.4-21.1-91.8-24-104-1.4-5.8-5.2-22.4-8.6-37-3.3-14.6-7.6-33.3-9.5-41.5-1.9-8.3-4.6-19.7-5.9-25.5-6.3-27.4-7.4-32-7.8-32.7-.3-.4-7.6-31.4-16.2-68.8s-16-68.3-16.4-68.8c-.4-.4-32.6-.6-71.6-.5l-70.9.3-2.7 12c-1.5 6.6-7.3 31.6-12.9 55.5-5.6 23.9-11.4 49.3-13.1 56.5-1.6 7.1-3.8 16.1-4.9 20-1.1 3.8-4.5 17.8-7.6 31-3 13.2-6.8 29.6-8.4 36.5-1.6 6.9-5.4 23.3-8.5 36.5-3 13.2-6.6 28.7-8 34.5-9.1 38.8-10.9 46.6-13 56-2.8 12.5-5.9 25.6-20 86-5.8 25-11.7 51.1-13.1 58-1.4 6.9-4.5 20.8-6.9 31-2.4 10.2-6.6 28.6-9.5 41-5.5 24.2-5.8 25.5-6.4 24.9-.2-.2-3.6-17.3-7.6-37.9-3.9-20.6-10.2-53.7-14-73.5-3.8-19.8-11-57.6-16-84s-12.2-64.2-16-84c-3.8-19.8-11-57.6-16-84s-12.3-64.4-16.1-84.5c-10.4-54.3-13.5-71.1-15.9-85.5-1.2-7.2-3.6-20.4-5.4-29.5l-3.2-16.5-84.2-.3c-46.3-.1-84.2 0-84.2.2z"/></svg>